  0
SECTION
  2
BLOCKS
  0
ENDSEC
  0
SECTION
  2
ENTITIES
  0
LINE
  8
0
 10
-112.763
 20
-67.3338
 11
-112.707
 21
-67.6929
  0
LINE
  8
0
 10
-112.707
 20
-67.6929
 11
-110.88
 21
-79.4485
  0
LINE
  8
0
 10
-110.88
 20
-79.4485
 11
-110.85
 21
-79.4737
  0
LINE
  8
0
 10
-110.85
 20
-79.4737
 11
-110.803
 21
-79.5129
  0
LINE
  8
0
 10
-110.803
 20
-79.5129
 11
-110.803
 21
-79.5129
  0
LINE
  8
0
 10
-110.803
 20
-79.5129
 11
-105.916
 21
-83.6128
  0
LINE
  8
0
 10
-105.916
 20
-83.6128
 11
-97.5272
 21
-90.6496
  0
LINE
  8
0
 10
-97.5272
 20
-90.6496
 11
-93.6205
 21
-92.198
  0
LINE
  8
0
 10
-93.6205
 20
-92.198
 11
-91.445
 21
-92.1709
  0
LINE
  8
0
 10
-91.445
 20
-92.1709
 11
-84.0629
 21
-99.2701
  0
LINE
  8
0
 10
-84.0629
 20
-99.2701
 11
-78.7005
 21
-104.427
  0
LINE
  8
0
 10
-78.7005
 20
-104.427
 11
-78.7005
 21
-104.427
  0
LINE
  8
0
 10
-78.7005
 20
-104.427
 11
-78.6772
 21
-104.449
  0
LINE
  8
0
 10
-78.6772
 20
-104.449
 11
-78.6264
 21
-104.498
  0
LINE
  8
0
 10
-78.6264
 20
-104.498
 11
-77.8539
 21
-104.553
  0
LINE
  8
0
 10
-77.8539
 20
-104.553
 11
-70.0657
 21
-105.102
  0
LINE
  8
0
 10
-70.0657
 20
-105.102
 11
-65.7103
 21
-105.131
  0
LINE
  8
0
 10
-65.7103
 20
-105.131
 11
-65.7103
 21
-105.131
  0
LINE
  8
0
 10
-65.7103
 20
-105.131
 11
-63.8594
 21
-104.219
  0
LINE
  8
0
 10
-63.8594
 20
-104.219
 11
-63.8594
 21
-104.219
  0
LINE
  8
0
 10
-63.8594
 20
-104.219
 11
-63.8528
 21
-104.216
  0
LINE
  8
0
 10
-63.8528
 20
-104.216
 11
-63.8526
 21
-104.216
  0
LINE
  8
0
 10
-63.8526
 20
-104.216
 11
-63.8526
 21
-104.216
  0
LINE
  8
0
 10
-63.8526
 20
-104.216
 11
-59.4119
 21
-98.1037
  0
LINE
  8
0
 10
-59.4119
 20
-98.1037
 11
-55.2753
 21
-92.4101
  0
LINE
  8
0
 10
-55.2753
 20
-92.4101
 11
-55.9188
 21
-89.877
  0
LINE
  8
0
 10
-55.9188
 20
-89.877
 11
-56.5113
 21
-87.5449
  0
LINE
  8
0
 10
-56.5113
 20
-87.5449
 11
-53.2136
 21
-83.8824
  0
LINE
  8
0
 10
-53.2136
 20
-83.8824
 11
-53.2133
 21
-83.8821
  0
LINE
  8
0
 10
-53.2133
 20
-83.8821
 11
-47.2684
 21
-77.2796
  0
LINE
  8
0
 10
-47.2684
 20
-77.2796
 11
-39.5827
 21
-72.0375
  0
LINE
  8
0
 10
-39.5827
 20
-72.0375
 11
-39.5824
 21
-72.0373
  0
LINE
  8
0
 10
-39.5824
 20
-72.0373
 11
-36.6512
 21
-70.0381
  0
LINE
  8
0
 10
-36.6512
 20
-70.0381
 11
-33.9971
 21
-69.3607
  0
LINE
  8
0
 10
-33.9971
 20
-69.3607
 11
-24.8911
 21
-67.0366
  0
LINE
  8
0
 10
-24.8911
 20
-67.0366
 11
-19.2352
 21
-67.0366
  0
LINE
  8
0
 10
-19.2352
 20
-67.0366
 11
-19.2032
 21
-67.0366
  0
LINE
  8
0
 10
-19.2032
 20
-67.0366
 11
-4.36379
 21
-67.0366
  0
LINE
  8
0
 10
-4.36379
 20
-67.0366
 11
-4.36379
 21
-67.0366
  0
LINE
  8
0
 10
-4.36379
 20
-67.0366
 11
-3.51141
 21
-65.7772
  0
LINE
  8
0
 10
-3.51141
 20
-65.7772
 11
-3.17945
 21
-65.2866
  0
LINE
  8
0
 10
-3.17945
 20
-65.2866
 11
-1.25496
 21
-61.7794
  0
LINE
  8
0
 10
-1.25496
 20
-61.7794
 11
-1.25484
 21
-61.7792
  0
LINE
  8
0
 10
-1.25484
 20
-61.7792
 11
1.70753
 21
-56.3805
  0
LINE
  8
0
 10
1.70753
 20
-56.3805
 11
8.04965
 21
-56.3805
  0
LINE
  8
0
 10
8.04965
 20
-56.3805
 11
10.2317
 21
-56.3805
  0
LINE
  8
0
 10
10.2317
 20
-56.3805
 11
10.2798
 21
-56.3805
  0
LINE
  8
0
 10
10.2798
 20
-56.3805
 11
12.7873
 21
-56.3805
  0
LINE
  8
0
 10
12.7873
 20
-56.3805
 11
22.4802
 21
-56.3805
  0
LINE
  8
0
 10
22.4802
 20
-56.3805
 11
29.6955
 21
-56.3805
  0
LINE
  8
0
 10
29.6955
 20
-56.3805
 11
36.918
 21
-48.7656
  0
LINE
  8
0
 10
36.918
 20
-48.7656
 11
38.857
 21
-46.7213
  0
LINE
  8
0
 10
38.857
 20
-46.7213
 11
39.0179
 21
-46.5296
  0
LINE
  8
0
 10
39.0179
 20
-46.5296
 11
39.6175
 21
-45.8154
  0
LINE
  8
0
 10
39.6175
 20
-45.8154
 11
39.6153
 21
-45.7794
  0
LINE
  8
0
 10
39.6153
 20
-45.7794
 11
38.7503
 21
-31.4291
  0
LINE
  8
0
 10
38.7503
 20
-31.4291
 11
38.7434
 21
-31.3151
  0
LINE
  8
0
 10
38.7434
 20
-31.3151
 11
38.6102
 21
-29.1049
  0
LINE
  8
0
 10
38.6102
 20
-29.1049
 11
38.3714
 21
-21.0405
  0
LINE
  8
0
 10
38.3714
 20
-21.0405
 11
38.3584
 21
-20.6
  0
LINE
  8
0
 10
38.3584
 20
-20.6
 11
38.3584
 21
-3.4
  0
LINE
  8
0
 10
38.3584
 20
-3.4
 11
38.3714
 21
-2.95945
  0
LINE
  8
0
 10
38.3714
 20
-2.95945
 11
38.6102
 21
5.10487
  0
LINE
  8
0
 10
38.6102
 20
5.10487
 11
38.7434
 21
7.31509
  0
LINE
  8
0
 10
38.7434
 20
7.31509
 11
38.7503
 21
7.42911
  0
LINE
  8
0
 10
38.7503
 20
7.42911
 11
39.6153
 21
21.7794
  0
LINE
  8
0
 10
39.6153
 20
21.7794
 11
39.6175
 21
21.8154
  0
LINE
  8
0
 10
39.6175
 20
21.8154
 11
39.0179
 21
22.5296
  0
LINE
  8
0
 10
39.0179
 20
22.5296
 11
38.857
 21
22.7213
  0
LINE
  8
0
 10
38.857
 20
22.7213
 11
36.918
 21
24.7656
  0
LINE
  8
0
 10
36.918
 20
24.7656
 11
29.6955
 21
32.3805
  0
LINE
  8
0
 10
29.6955
 20
32.3805
 11
22.4802
 21
32.3805
  0
LINE
  8
0
 10
22.4802
 20
32.3805
 11
12.7873
 21
32.3805
  0
LINE
  8
0
 10
12.7873
 20
32.3805
 11
10.2798
 21
32.3805
  0
LINE
  8
0
 10
10.2798
 20
32.3805
 11
10.2317
 21
32.3805
  0
LINE
  8
0
 10
10.2317
 20
32.3805
 11
8.04965
 21
32.3805
  0
LINE
  8
0
 10
8.04965
 20
32.3805
 11
-1.10981
 21
32.3805
  0
LINE
  8
0
 10
-1.10981
 20
32.3805
 11
-7.76424
 21
32.3805
  0
LINE
  8
0
 10
-7.76424
 20
32.3805
 11
-9.52784
 21
35.8666
  0
LINE
  8
0
 10
-9.52784
 20
35.8666
 11
-13.3767
 21
43.4747
  0
LINE
  8
0
 10
-13.3767
 20
43.4747
 11
-13.9217
 21
43.8484
  0
LINE
  8
0
 10
-13.9217
 20
43.8484
 11
-13.9217
 21
43.8484
  0
LINE
  8
0
 10
-13.9217
 20
43.8484
 11
-14.6977
 21
44.3805
  0
LINE
  8
0
 10
-14.6977
 20
44.3805
 11
-24.1069
 21
44.3805
  0
LINE
  8
0
 10
-24.1069
 20
44.3805
 11
-24.1553
 21
44.3805
  0
LINE
  8
0
 10
-24.1553
 20
44.3805
 11
-30.6224
 21
44.3805
  0
LINE
  8
0
 10
-30.6224
 20
44.3805
 11
-34.5661
 21
46.2889
  0
LINE
  8
0
 10
-34.5661
 20
46.2889
 11
-36.45
 21
47.2005
  0
LINE
  8
0
 10
-36.45
 20
47.2005
 11
-46.4762
 21
47.2005
  0
LINE
  8
0
 10
-46.4762
 20
47.2005
 11
-46.5154
 21
47.2005
  0
LINE
  8
0
 10
-46.5154
 20
47.2005
 11
-51.7893
 21
47.2005
  0
LINE
  8
0
 10
-51.7893
 20
47.2005
 11
-51.8133
 21
47.2005
  0
LINE
  8
0
 10
-51.8133
 20
47.2005
 11
-52.4652
 21
46.5535
  0
LINE
  8
0
 10
-52.4652
 20
46.5535
 11
-54.6544
 21
44.3805
  0
LINE
  8
0
 10
-54.6544
 20
44.3805
 11
-65.8111
 21
44.3805
  0
LINE
  8
0
 10
-65.8111
 20
44.3805
 11
-65.8345
 21
44.3805
  0
LINE
  8
0
 10
-65.8345
 20
44.3805
 11
-69.1476
 21
44.3805
  0
LINE
  8
0
 10
-69.1476
 20
44.3805
 11
-72.3891
 21
44.3805
  0
LINE
  8
0
 10
-72.3891
 20
44.3805
 11
-72.4057
 21
44.3805
  0
LINE
  8
0
 10
-72.4057
 20
44.3805
 11
-73.1472
 21
44.3805
  0
LINE
  8
0
 10
-73.1472
 20
44.3805
 11
-84.3314
 21
44.3805
  0
LINE
  8
0
 10
-84.3314
 20
44.3805
 11
-86.782
 21
44.3805
  0
LINE
  8
0
 10
-86.782
 20
44.3805
 11
-86.7939
 21
44.3805
  0
LINE
  8
0
 10
-86.7939
 20
44.3805
 11
-89.3588
 21
41.5256
  0
LINE
  8
0
 10
-89.3588
 20
41.5256
 11
-89.8144
 21
41.0184
  0
LINE
  8
0
 10
-89.8144
 20
41.0184
 11
-99.8144
 21
31.0184
  0
LINE
  8
0
 10
-99.8144
 20
31.0184
 11
-100.325
 21
27.9263
  0
LINE
  8
0
 10
-100.325
 20
27.9263
 11
-102.587
 21
14.2113
  0
LINE
  8
0
 10
-102.587
 20
14.2113
 11
-102.948
 21
9.75475
  0
LINE
  8
0
 10
-102.948
 20
9.75475
 11
-103.03
 21
8.75
  0
LINE
  8
0
 10
-103.03
 20
8.75
 11
-103.03
 21
-8.75
  0
LINE
  8
0
 10
-103.03
 20
-8.75
 11
-102.948
 21
-9.75475
  0
LINE
  8
0
 10
-102.948
 20
-9.75475
 11
-102.587
 21
-14.2113
  0
LINE
  8
0
 10
-102.587
 20
-14.2113
 11
-100.325
 21
-27.9263
  0
LINE
  8
0
 10
-100.325
 20
-27.9263
 11
-99.8144
 21
-31.0184
  0
LINE
  8
0
 10
-99.8144
 20
-31.0184
 11
-99.4346
 21
-33.1562
  0
LINE
  8
0
 10
-99.4346
 20
-33.1562
 11
-98.7139
 21
-37.2116
  0
LINE
  8
0
 10
-98.7139
 20
-37.2116
 11
-103.172
 21
-40.9524
  0
LINE
  8
0
 10
-103.172
 20
-40.9524
 11
-106.434
 21
-43.6894
  0
LINE
  8
0
 10
-106.434
 20
-43.6894
 11
-106.434
 21
-43.6894
  0
LINE
  8
0
 10
-106.434
 20
-43.6894
 11
-106.466
 21
-43.7162
  0
LINE
  8
0
 10
-106.466
 20
-43.7162
 11
-107.098
 21
-44.4872
  0
LINE
  8
0
 10
-107.098
 20
-44.4872
 11
-107.722
 21
-45.2476
  0
LINE
  8
0
 10
-107.722
 20
-45.2476
 11
-105.66
 21
-50.8472
  0
LINE
  8
0
 10
-105.66
 20
-50.8472
 11
-104.075
 21
-55.1554
  0
LINE
  8
0
 10
-104.075
 20
-55.1554
 11
-104.075
 21
-55.1554
  0
LINE
  8
0
 10
-104.075
 20
-55.1554
 11
-108.128
 21
-60.3441
  0
LINE
  8
0
 10
-108.128
 20
-60.3441
 11
-111.827
 21
-65.0776
  0
LINE
  8
0
 10
-111.827
 20
-65.0776
 11
-111.827
 21
-65.0776
  0
LINE
  8
0
 10
-111.827
 20
-65.0776
 11
-112.714
 21
-67.2169
  0
LINE
  8
0
 10
-112.714
 20
-67.2169
 11
-112.714
 21
-67.2169
  0
LINE
  8
0
 10
-112.714
 20
-67.2169
 11
-112.758
 21
-67.323
  0
LINE
  8
0
 10
-112.758
 20
-67.323
 11
-112.763
 21
-67.3338
  0
LINE
  8
0
 10
-109.729
 20
-69.549
 11
-106.393
 21
-61.9222
  0
LINE
  8
0
 10
-106.393
 20
-61.9222
 11
-104.309
 21
-59.2544
  0
LINE
  8
0
 10
-104.309
 20
-59.2544
 11
-101.05
 21
-55.0836
  0
LINE
  8
0
 10
-101.05
 20
-55.0836
 11
-101.019
 21
-55.0434
  0
LINE
  8
0
 10
-101.019
 20
-55.0434
 11
-101.019
 21
-55.0434
  0
LINE
  8
0
 10
-101.019
 20
-55.0434
 11
-101
 21
-55.019
  0
LINE
  8
0
 10
-101
 20
-55.019
 11
-101
 21
-55.019
  0
LINE
  8
0
 10
-101
 20
-55.019
 11
-102.981
 21
-50.1055
  0
LINE
  8
0
 10
-102.981
 20
-50.1055
 11
-104.822
 21
-45.5407
  0
LINE
  8
0
 10
-104.822
 20
-45.5407
 11
-103.181
 21
-44.1642
  0
LINE
  8
0
 10
-103.181
 20
-44.1642
 11
-103.181
 21
-44.164
  0
LINE
  8
0
 10
-103.181
 20
-44.164
 11
-96.759
 21
-38.7752
  0
LINE
  8
0
 10
-96.759
 20
-38.7752
 11
-96.3147
 21
-38.2334
  0
LINE
  8
0
 10
-96.3147
 20
-38.2334
 11
-95.5031
 21
-37.2438
  0
LINE
  8
0
 10
-95.5031
 20
-37.2438
 11
-95.5031
 21
-37.2438
  0
LINE
  8
0
 10
-95.5031
 20
-37.2438
 11
-95.8636
 21
-36.2126
  0
LINE
  8
0
 10
-95.8636
 20
-36.2126
 11
-96.2089
 21
-35.2249
  0
LINE
  8
0
 10
-96.2089
 20
-35.2249
 11
-95.8614
 21
-35.3922
  0
LINE
  8
0
 10
-95.8614
 20
-35.3922
 11
-93.9677
 21
-35.3922
  0
LINE
  8
0
 10
-93.9677
 20
-35.3922
 11
-92.2616
 21
-34.5706
  0
LINE
  8
0
 10
-92.2616
 20
-34.5706
 11
-91.081
 21
-33.0901
  0
LINE
  8
0
 10
-91.081
 20
-33.0901
 11
-90.6596
 21
-31.2439
  0
LINE
  8
0
 10
-90.6596
 20
-31.2439
 11
-91.081
 21
-29.3978
  0
LINE
  8
0
 10
-91.081
 20
-29.3978
 11
-92.2616
 21
-27.9172
  0
LINE
  8
0
 10
-92.2616
 20
-27.9172
 11
-93.9677
 21
-27.0956
  0
LINE
  8
0
 10
-93.9677
 20
-27.0956
 11
-95.8614
 21
-27.0956
  0
LINE
  8
0
 10
-95.8614
 20
-27.0956
 11
-97.5675
 21
-27.9172
  0
LINE
  8
0
 10
-97.5675
 20
-27.9172
 11
-98.0995
 21
-28.5843
  0
LINE
  8
0
 10
-98.0995
 20
-28.5843
 11
-100.035
 21
-16.8513
  0
LINE
  8
0
 10
-100.035
 20
-16.8513
 11
-100.487
 21
-14.1113
  0
LINE
  8
0
 10
-100.487
 20
-14.1113
 11
-100.564
 21
-13.1576
  0
LINE
  8
0
 10
-100.564
 20
-13.1576
 11
-100.93
 21
-8.64999
  0
LINE
  8
0
 10
-100.93
 20
-8.64999
 11
-100.93
 21
8.64999
  0
LINE
  8
0
 10
-100.93
 20
8.64999
 11
-100.564
 21
13.1576
  0
LINE
  8
0
 10
-100.564
 20
13.1576
 11
-100.487
 21
14.1113
  0
LINE
  8
0
 10
-100.487
 20
14.1113
 11
-100.035
 21
16.8513
  0
LINE
  8
0
 10
-100.035
 20
16.8513
 11
-99.5834
 21
19.5889
  0
LINE
  8
0
 10
-99.5834
 20
19.5889
 11
-99.3037
 21
19.2382
  0
LINE
  8
0
 10
-99.3037
 20
19.2382
 11
-97.5976
 21
18.4165
  0
LINE
  8
0
 10
-97.5976
 20
18.4165
 11
-95.7039
 21
18.4165
  0
LINE
  8
0
 10
-95.7039
 20
18.4165
 11
-93.9978
 21
19.2382
  0
LINE
  8
0
 10
-93.9978
 20
19.2382
 11
-92.8171
 21
20.7187
  0
LINE
  8
0
 10
-92.8171
 20
20.7187
 11
-92.3957
 21
22.5649
  0
LINE
  8
0
 10
-92.3957
 20
22.5649
 11
-92.8171
 21
24.411
  0
LINE
  8
0
 10
-92.8171
 20
24.411
 11
-93.9978
 21
25.8916
  0
LINE
  8
0
 10
-93.9978
 20
25.8916
 11
-95.7039
 21
26.7132
  0
LINE
  8
0
 10
-95.7039
 20
26.7132
 11
-97.5976
 21
26.7132
  0
LINE
  8
0
 10
-97.5976
 20
26.7132
 11
-98.4781
 21
26.2891
  0
LINE
  8
0
 10
-98.4781
 20
26.2891
 11
-97.7144
 21
30.9184
  0
LINE
  8
0
 10
-97.7144
 20
30.9184
 11
-89.7144
 21
38.9184
  0
LINE
  8
0
 10
-89.7144
 20
38.9184
 11
-85.7421
 21
41.0341
  0
LINE
  8
0
 10
-85.7421
 20
41.0341
 11
-84.9683
 21
41.4462
  0
LINE
  8
0
 10
-84.9683
 20
41.4462
 11
-73.3372
 21
41.4462
  0
LINE
  8
0
 10
-73.3372
 20
41.4462
 11
-71.3493
 21
41.4462
  0
LINE
  8
0
 10
-71.3493
 20
41.4462
 11
-68.2038
 21
41.4462
  0
LINE
  8
0
 10
-68.2038
 20
41.4462
 11
-67.5481
 21
41.4462
  0
LINE
  8
0
 10
-67.5481
 20
41.4462
 11
-55.6654
 21
41.4462
  0
LINE
  8
0
 10
-55.6654
 20
41.4462
 11
-53.0435
 21
41.4462
  0
LINE
  8
0
 10
-53.0435
 20
41.4462
 11
-53.0253
 21
41.4462
  0
LINE
  8
0
 10
-53.0253
 20
41.4462
 11
-52.3557
 21
42.1636
  0
LINE
  8
0
 10
-52.3557
 20
42.1636
 11
-50.393
 21
44.2662
  0
LINE
  8
0
 10
-50.393
 20
44.2662
 11
-39.0216
 21
44.2662
  0
LINE
  8
0
 10
-39.0216
 20
44.2662
 11
-35.2063
 21
44.2662
  0
LINE
  8
0
 10
-35.2063
 20
44.2662
 11
-31.3943
 21
42.3468
  0
LINE
  8
0
 10
-31.3943
 20
42.3468
 11
-29.6059
 21
41.4462
  0
LINE
  8
0
 10
-29.6059
 20
41.4462
 11
-27.1643
 21
41.4462
  0
LINE
  8
0
 10
-27.1643
 20
41.4462
 11
-27.2543
 21
41.3333
  0
LINE
  8
0
 10
-27.2543
 20
41.3333
 11
-27.6757
 21
39.4871
  0
LINE
  8
0
 10
-27.6757
 20
39.4871
 11
-27.2543
 21
37.641
  0
LINE
  8
0
 10
-27.2543
 20
37.641
 11
-26.0736
 21
36.1605
  0
LINE
  8
0
 10
-26.0736
 20
36.1605
 11
-24.3675
 21
35.3388
  0
LINE
  8
0
 10
-24.3675
 20
35.3388
 11
-22.4738
 21
35.3388
  0
LINE
  8
0
 10
-22.4738
 20
35.3388
 11
-20.7677
 21
36.1605
  0
LINE
  8
0
 10
-20.7677
 20
36.1605
 11
-19.5871
 21
37.641
  0
LINE
  8
0
 10
-19.5871
 20
37.641
 11
-19.1657
 21
39.4871
  0
LINE
  8
0
 10
-19.1657
 20
39.4871
 11
-19.5871
 21
41.3333
  0
LINE
  8
0
 10
-19.5871
 20
41.3333
 11
-19.6771
 21
41.4462
  0
LINE
  8
0
 10
-19.6771
 20
41.4462
 11
-18.3618
 21
41.4462
  0
LINE
  8
0
 10
-18.3618
 20
41.4462
 11
-18.3398
 21
41.4462
  0
LINE
  8
0
 10
-18.3398
 20
41.4462
 11
-14.5199
 21
41.4462
  0
LINE
  8
0
 10
-14.5199
 20
41.4462
 11
-12.6682
 21
37.968
  0
LINE
  8
0
 10
-12.6682
 20
37.968
 11
-8.61374
 21
30.3521
  0
LINE
  8
0
 10
-8.61374
 20
30.3521
 11
-8.27183
 21
30.0556
  0
LINE
  8
0
 10
-8.27183
 20
30.0556
 11
-7.56903
 21
29.4462
  0
LINE
  8
0
 10
-7.56903
 20
29.4462
 11
3.56344
 21
29.4462
  0
LINE
  8
0
 10
3.56344
 20
29.4462
 11
8.94169
 21
29.4462
  0
LINE
  8
0
 10
8.94169
 20
29.4462
 11
11.659
 21
29.4462
  0
LINE
  8
0
 10
11.659
 20
29.4462
 11
13.4433
 21
29.4462
  0
LINE
  8
0
 10
13.4433
 20
29.4462
 11
23.2762
 21
29.4462
  0
LINE
  8
0
 10
23.2762
 20
29.4462
 11
30.2363
 21
29.4462
  0
LINE
  8
0
 10
30.2363
 20
29.4462
 11
34.7082
 21
24.7314
  0
LINE
  8
0
 10
34.7082
 20
24.7314
 11
36.7991
 21
22.5269
  0
LINE
  8
0
 10
36.7991
 20
22.5269
 11
36.565
 21
18.6434
  0
LINE
  8
0
 10
36.565
 20
18.6434
 11
36.0757
 21
10.5264
  0
LINE
  8
0
 10
36.0757
 20
10.5264
 11
36.0757
 21
10.5264
  0
LINE
  8
0
 10
36.0757
 20
10.5264
 11
35.5882
 21
6.67589
  0
LINE
  8
0
 10
35.5882
 20
6.67589
 11
35.4676
 21
5.72323
  0
LINE
  8
0
 10
35.4676
 20
5.72323
 11
35.4676
 21
5.72323
  0
LINE
  8
0
 10
35.4676
 20
5.72323
 11
35.4546
 21
5.62048
  0
LINE
  8
0
 10
35.4546
 20
5.62048
 11
35.4267
 21
5.18581
  0
LINE
  8
0
 10
35.4267
 20
5.18581
 11
34.8822
 21
-3.3
  0
LINE
  8
0
 10
34.8822
 20
-3.3
 11
34.8822
 21
-8.63258
  0
LINE
  8
0
 10
34.8822
 20
-8.63258
 11
33.2607
 21
-7.85168
  0
LINE
  8
0
 10
33.2607
 20
-7.85168
 11
31.367
 21
-7.85168
  0
LINE
  8
0
 10
31.367
 20
-7.85168
 11
29.6609
 21
-8.67331
  0
LINE
  8
0
 10
29.6609
 20
-8.67331
 11
28.4802
 21
-10.1538
  0
LINE
  8
0
 10
28.4802
 20
-10.1538
 11
28.0589
 21
-12
  0
LINE
  8
0
 10
28.0589
 20
-12
 11
28.4802
 21
-13.8462
  0
LINE
  8
0
 10
28.4802
 20
-13.8462
 11
29.6609
 21
-15.3267
  0
LINE
  8
0
 10
29.6609
 20
-15.3267
 11
31.367
 21
-16.1483
  0
LINE
  8
0
 10
31.367
 20
-16.1483
 11
33.2607
 21
-16.1483
  0
LINE
  8
0
 10
33.2607
 20
-16.1483
 11
34.8822
 21
-15.3674
  0
LINE
  8
0
 10
34.8822
 20
-15.3674
 11
34.8822
 21
-20.7
  0
LINE
  8
0
 10
34.8822
 20
-20.7
 11
35.4267
 21
-29.1858
  0
LINE
  8
0
 10
35.4267
 20
-29.1858
 11
35.4546
 21
-29.6205
  0
LINE
  8
0
 10
35.4546
 20
-29.6205
 11
35.4676
 21
-29.7232
  0
LINE
  8
0
 10
35.4676
 20
-29.7232
 11
35.4676
 21
-29.7232
  0
LINE
  8
0
 10
35.4676
 20
-29.7232
 11
35.5882
 21
-30.6759
  0
LINE
  8
0
 10
35.5882
 20
-30.6759
 11
36.0757
 21
-34.5264
  0
LINE
  8
0
 10
36.0757
 20
-34.5264
 11
36.0757
 21
-34.5264
  0
LINE
  8
0
 10
36.0757
 20
-34.5264
 11
36.565
 21
-42.6434
  0
LINE
  8
0
 10
36.565
 20
-42.6434
 11
36.7991
 21
-46.5269
  0
LINE
  8
0
 10
36.7991
 20
-46.5269
 11
34.7082
 21
-48.7314
  0
LINE
  8
0
 10
34.7082
 20
-48.7314
 11
30.2363
 21
-53.4462
  0
LINE
  8
0
 10
30.2363
 20
-53.4462
 11
23.2762
 21
-53.4462
  0
LINE
  8
0
 10
23.2762
 20
-53.4462
 11
13.4433
 21
-53.4462
  0
LINE
  8
0
 10
13.4433
 20
-53.4462
 11
11.659
 21
-53.4462
  0
LINE
  8
0
 10
11.659
 20
-53.4462
 11
8.94169
 21
-53.4462
  0
LINE
  8
0
 10
8.94169
 20
-53.4462
 11
3.56344
 21
-53.4462
  0
LINE
  8
0
 10
3.56344
 20
-53.4462
 11
-7.56903
 21
-53.4462
  0
LINE
  8
0
 10
-7.56903
 20
-53.4462
 11
-8.27183
 21
-54.0556
  0
LINE
  8
0
 10
-8.27183
 20
-54.0556
 11
-8.61374
 21
-54.3521
  0
LINE
  8
0
 10
-8.61374
 20
-54.3521
 11
-8.61374
 21
-54.3521
  0
LINE
  8
0
 10
-8.61374
 20
-54.3521
 11
-8.60867
 21
-54.4134
  0
LINE
  8
0
 10
-8.60867
 20
-54.4134
 11
-8.54837
 21
-55.1416
  0
LINE
  8
0
 10
-8.54837
 20
-55.1416
 11
-8.45091
 21
-56.3186
  0
LINE
  8
0
 10
-8.45091
 20
-56.3186
 11
-8.44578
 21
-56.3805
  0
LINE
  8
0
 10
-8.44578
 20
-56.3805
 11
-8.41163
 21
-56.3805
  0
LINE
  8
0
 10
-8.41163
 20
-56.3805
 11
-1.89786
 21
-56.3805
  0
LINE
  8
0
 10
-1.89786
 20
-56.3805
 11
-2.36583
 21
-57.444
  0
LINE
  8
0
 10
-2.36583
 20
-57.444
 11
-5.01656
 21
-63.468
  0
LINE
  8
0
 10
-5.01656
 20
-63.468
 11
-8.76237
 21
-63.468
  0
LINE
  8
0
 10
-8.76237
 20
-63.468
 11
-8.77875
 21
-63.468
  0
LINE
  8
0
 10
-8.77875
 20
-63.468
 11
-24.209
 21
-63.468
  0
LINE
  8
0
 10
-24.209
 20
-63.468
 11
-32.2017
 21
-65.9999
  0
LINE
  8
0
 10
-32.2017
 20
-65.9999
 11
-32.0981
 21
-65.5463
  0
LINE
  8
0
 10
-32.0981
 20
-65.5463
 11
-32.5195
 21
-63.7002
  0
LINE
  8
0
 10
-32.5195
 20
-63.7002
 11
-33.7002
 21
-62.2197
  0
LINE
  8
0
 10
-33.7002
 20
-62.2197
 11
-35.4063
 21
-61.398
  0
LINE
  8
0
 10
-35.4063
 20
-61.398
 11
-37.3
 21
-61.398
  0
LINE
  8
0
 10
-37.3
 20
-61.398
 11
-39.0061
 21
-62.2197
  0
LINE
  8
0
 10
-39.0061
 20
-62.2197
 11
-40.1867
 21
-63.7002
  0
LINE
  8
0
 10
-40.1867
 20
-63.7002
 11
-40.6081
 21
-65.5463
  0
LINE
  8
0
 10
-40.6081
 20
-65.5463
 11
-40.1867
 21
-67.3925
  0
LINE
  8
0
 10
-40.1867
 20
-67.3925
 11
-39.0061
 21
-68.873
  0
LINE
  8
0
 10
-39.0061
 20
-68.873
 11
-38.7318
 21
-69.0051
  0
LINE
  8
0
 10
-38.7318
 20
-69.0051
 11
-45.0164
 21
-73.1672
  0
LINE
  8
0
 10
-45.0164
 20
-73.1672
 11
-45.0166
 21
-73.1674
  0
LINE
  8
0
 10
-45.0166
 20
-73.1674
 11
-48.3843
 21
-75.3977
  0
LINE
  8
0
 10
-48.3843
 20
-75.3977
 11
-49.4083
 21
-76.1793
  0
LINE
  8
0
 10
-49.4083
 20
-76.1793
 11
-49.9586
 21
-76.5994
  0
LINE
  8
0
 10
-49.9586
 20
-76.5994
 11
-49.9763
 21
-76.619
  0
LINE
  8
0
 10
-49.9763
 20
-76.619
 11
-56.5176
 21
-83.8839
  0
LINE
  8
0
 10
-56.5176
 20
-83.8839
 11
-59.5809
 21
-87.2861
  0
LINE
  8
0
 10
-59.5809
 20
-87.2861
 11
-59.5809
 21
-87.2861
  0
LINE
  8
0
 10
-59.5809
 20
-87.2861
 11
-59.611
 21
-87.3195
  0
LINE
  8
0
 10
-59.611
 20
-87.3195
 11
-59.0794
 21
-89.8295
  0
LINE
  8
0
 10
-59.0794
 20
-89.8295
 11
-58.6299
 21
-91.9518
  0
LINE
  8
0
 10
-58.6299
 20
-91.9518
 11
-65.4663
 21
-101.361
  0
LINE
  8
0
 10
-65.4663
 20
-101.361
 11
-66.3746
 21
-102.611
  0
LINE
  8
0
 10
-66.3746
 20
-102.611
 11
-76.3226
 21
-102.039
  0
LINE
  8
0
 10
-76.3226
 20
-102.039
 11
-76.3226
 21
-102.039
  0
LINE
  8
0
 10
-76.3226
 20
-102.039
 11
-82.5061
 21
-96.1726
  0
LINE
  8
0
 10
-82.5061
 20
-96.1726
 11
-89.1785
 21
-89.8427
  0
LINE
  8
0
 10
-89.1785
 20
-89.8427
 11
-89.2265
 21
-89.7971
  0
LINE
  8
0
 10
-89.2265
 20
-89.7971
 11
-92.446
 21
-88.5116
  0
LINE
  8
0
 10
-92.446
 20
-88.5116
 11
-95.4244
 21
-88.0149
  0
LINE
  8
0
 10
-95.4244
 20
-88.0149
 11
-95.4244
 21
-88.0149
  0
LINE
  8
0
 10
-95.4244
 20
-88.0149
 11
-108.642
 21
-76.9647
  0
LINE
  8
0
 10
-108.642
 20
-76.9647
 11
-109.729
 21
-69.549
  0
LINE
  8
0
 10
-98.3507
 20
22.5649
 11
-97.5007
 21
24.0371
  0
LINE
  8
0
 10
-97.5007
 20
24.0371
 11
-95.8007
 21
24.0371
  0
LINE
  8
0
 10
-95.8007
 20
24.0371
 11
-94.9507
 21
22.5649
  0
LINE
  8
0
 10
-94.9507
 20
22.5649
 11
-95.8007
 21
21.0926
  0
LINE
  8
0
 10
-95.8007
 20
21.0926
 11
-97.5007
 21
21.0926
  0
LINE
  8
0
 10
-97.5007
 20
21.0926
 11
-98.3507
 21
22.5649
  0
LINE
  8
0
 10
-96.6146
 20
-31.2439
 11
-95.7646
 21
-29.7717
  0
LINE
  8
0
 10
-95.7646
 20
-29.7717
 11
-94.0646
 21
-29.7717
  0
LINE
  8
0
 10
-94.0646
 20
-29.7717
 11
-93.2146
 21
-31.2439
  0
LINE
  8
0
 10
-93.2146
 20
-31.2439
 11
-94.0646
 21
-32.7162
  0
LINE
  8
0
 10
-94.0646
 20
-32.7162
 11
-95.7646
 21
-32.7162
  0
LINE
  8
0
 10
-95.7646
 20
-32.7162
 11
-96.6146
 21
-31.2439
  0
LINE
  8
0
 10
-38.0531
 20
-65.5463
 11
-37.2031
 21
-64.0741
  0
LINE
  8
0
 10
-37.2031
 20
-64.0741
 11
-35.5031
 21
-64.0741
  0
LINE
  8
0
 10
-35.5031
 20
-64.0741
 11
-34.6531
 21
-65.5463
  0
LINE
  8
0
 10
-34.6531
 20
-65.5463
 11
-35.5031
 21
-67.0186
  0
LINE
  8
0
 10
-35.5031
 20
-67.0186
 11
-37.2031
 21
-67.0186
  0
LINE
  8
0
 10
-37.2031
 20
-67.0186
 11
-38.0531
 21
-65.5463
  0
LINE
  8
0
 10
-25.1207
 20
39.4871
 11
-24.2707
 21
40.9594
  0
LINE
  8
0
 10
-24.2707
 20
40.9594
 11
-22.5707
 21
40.9594
  0
LINE
  8
0
 10
-22.5707
 20
40.9594
 11
-21.7207
 21
39.4871
  0
LINE
  8
0
 10
-21.7207
 20
39.4871
 11
-22.5707
 21
38.0149
  0
LINE
  8
0
 10
-22.5707
 20
38.0149
 11
-24.2707
 21
38.0149
  0
LINE
  8
0
 10
-24.2707
 20
38.0149
 11
-25.1207
 21
39.4871
  0
LINE
  8
0
 10
30.6139
 20
-12
 11
31.4639
 21
-10.5278
  0
LINE
  8
0
 10
31.4639
 20
-10.5278
 11
33.1639
 21
-10.5278
  0
LINE
  8
0
 10
33.1639
 20
-10.5278
 11
34.0139
 21
-12
  0
LINE
  8
0
 10
34.0139
 20
-12
 11
33.1639
 21
-13.4722
  0
LINE
  8
0
 10
33.1639
 20
-13.4722
 11
31.4639
 21
-13.4722
  0
LINE
  8
0
 10
31.4639
 20
-13.4722
 11
30.6139
 21
-12
  0
ENDSEC
  0
SECTION
  2
OBJECTS
  0
DICTIONARY
  0
ENDSEC
  0
EOF
